<svg width="48" height="48" viewBox="0 0 48 48" fill="none" xmlns="http://www.w3.org/2000/svg">
<path fill-rule="evenodd" clip-rule="evenodd" d="M14.24 9C11.346 9 9 11.346 9 14.24V18H39V14.5C39 11.4624 36.5376 9 33.5 9H14.24ZM15 15.5C15.8284 15.5 16.5 14.8284 16.5 14C16.5 13.1716 15.8284 12.5 15 12.5C14.1716 12.5 13.5 13.1716 13.5 14C13.5 14.8284 14.1716 15.5 15 15.5ZM21 14C21 14.8284 20.3284 15.5 19.5 15.5C18.6716 15.5 18 14.8284 18 14C18 13.1716 18.6716 12.5 19.5 12.5C20.3284 12.5 21 13.1716 21 14ZM24 15.5C24.8284 15.5 25.5 14.8284 25.5 14C25.5 13.1716 24.8284 12.5 24 12.5C23.1716 12.5 22.5 13.1716 22.5 14C22.5 14.8284 23.1716 15.5 24 15.5Z" fill="#FEFDFF"/>
<path d="M9 33.76V21H39V33.5C39 36.5376 36.5376 39 33.5 39H14.24C11.346 39 9 36.654 9 33.76Z" fill="#FEFDFF"/>
</svg>
